<svg width="27" height="32" viewBox="0 0 27 32" fill="none" xmlns="http://www.w3.org/2000/svg">
<path d="M20.0898 16.2148C20.3359 15.9688 20.3359 15.5586 20.0898 15.2852L15.4961 10.6914C15.0586 10.2812 14.375 10.582 14.375 11.1562V13.7812H10.6562C10.2734 13.7812 10 14.082 10 14.4375V17.0625C10 17.4453 10.2734 17.7188 10.6562 17.7188H14.375V20.3438C14.375 20.9453 15.0859 21.2188 15.4961 20.8086L20.0898 16.2148ZM11.75 20.6719V19.5781C11.75 19.4141 11.5859 19.25 11.4219 19.25H9.125C8.63281 19.25 8.25 18.8672 8.25 18.375V13.125C8.25 12.6602 8.63281 12.25 9.125 12.25H11.4219C11.5859 12.25 11.75 12.1133 11.75 11.9219V10.8281C11.75 10.6641 11.5859 10.5 11.4219 10.5H9.125C7.67578 10.5 6.5 11.6758 6.5 13.125V18.375C6.5 19.8242 7.67578 21 9.125 21H11.4219C11.5859 21 11.75 20.8633 11.75 20.6719Z" fill="url(#paint0_linear_1155_2380)" style="mix-blend-mode:multiply"/>
<defs>
<linearGradient id="paint0_linear_1155_2380" x1="13.5" y1="1" x2="13.5" y2="32" gradientUnits="userSpaceOnUse">
<stop offset="0.21875" stop-color="#406BDA"/>
<stop offset="1" stop-color="#6083DC" stop-opacity="0.46"/>
</linearGradient>
</defs>
</svg>
