<svg width="339" height="338" viewBox="0 0 339 338" fill="none" xmlns="http://www.w3.org/2000/svg">
<g opacity="0.2">
<path fill-rule="evenodd" clip-rule="evenodd" d="M38.1744 220.523C85.3821 267.73 160.088 270.68 210.732 229.372L236.326 254.966L235.07 256.222C227.26 264.033 227.26 276.696 235.07 284.507L282.157 331.593C289.967 339.404 302.63 339.404 310.441 331.593L332.404 309.63C340.214 301.82 340.214 289.156 332.404 281.346L285.317 234.26C277.507 226.449 264.844 226.449 257.033 234.26L255.777 235.516L230.097 209.836C270.644 159.21 267.453 85.1042 220.523 38.1742C170.169 -12.1799 88.5285 -12.1799 38.1744 38.1742C-12.1797 88.5284 -12.1797 170.169 38.1744 220.523ZM62.2372 62.237C25.1725 99.3016 25.1725 159.395 62.2372 196.46C99.3018 233.525 159.395 233.525 196.46 196.46C233.525 159.395 233.525 99.3016 196.46 62.237C159.395 25.1724 99.3018 25.1724 62.2372 62.237ZM73.8337 103.009C69.5815 107.261 62.6875 107.261 58.4353 103.009C54.1832 98.7569 54.1832 91.8628 58.4353 87.6107C62.6875 83.3586 69.5815 83.3586 73.8337 87.6107C78.0858 91.8628 78.0858 98.7569 73.8337 103.009ZM65.0415 122.548C63.9716 133.816 65.3038 145.194 68.9624 155.927C72.9113 167.512 79.314 178.187 87.9683 186.841L87.9646 186.845C90.6066 189.693 90.3054 193.907 89.0301 196.632C88.656 197.432 88.0843 198.135 87.3439 198.615C84.4262 200.508 80.1451 199.908 77.4359 197.374L77.4324 197.377C77.3761 197.321 77.3199 197.265 77.2637 197.208L77.237 197.181C77.1871 197.132 77.1377 197.082 77.089 197.032C66.97 186.809 59.2995 174.422 54.6572 160.804C50.0228 147.208 48.5282 132.741 50.2823 118.49C50.2484 117.286 50.6346 115.953 51.5297 114.357C52.0129 113.495 52.6297 112.687 53.4787 112.182C56.2202 110.551 60.1279 111.185 62.8447 113.902C64.5806 115.638 65.2831 117.822 65.3385 119.868L65.3415 119.868L65.3391 119.888C65.3625 120.822 65.251 121.728 65.0415 122.548Z" fill="url(#paint0_linear_1112_31631)" style="mix-blend-mode:multiply"/>
</g>
<defs>
<linearGradient id="paint0_linear_1112_31631" x1="270.77" y1="88.4214" x2="88.4215" y2="270.77" gradientUnits="userSpaceOnUse">
<stop offset="0.21875" stop-color="#406BDA"/>
<stop offset="1" stop-color="#6083DC" stop-opacity="0.46"/>
</linearGradient>
</defs>
</svg>
