<svg width="110" height="100" viewBox="0 0 110 100" fill="none" xmlns="http://www.w3.org/2000/svg">
<circle cx="60.5" cy="50.5" r="19.5" fill="url(#paint0_linear_1105_11767)" style="mix-blend-mode:multiply"/>
<path d="M60 48C60 54.0751 55.0751 59 49 59C42.9249 59 38 54.0751 38 48C38 41.9249 42.9249 37 49 37C55.0751 37 60 41.9249 60 48Z" fill="white"/>
<path fill-rule="evenodd" clip-rule="evenodd" d="M82 70.7467C77.2558 74.5516 71.1571 76.8399 64.5041 76.8399C49.3836 76.8399 37.126 65.0202 37.126 50.4398C37.126 39.399 44.1546 29.9412 54.1326 25.9999C39.4146 27.6814 28 39.7552 28 54.3998C28 70.1952 41.279 82.9999 57.6596 82.9999C67.7367 82.9999 76.64 78.1538 82 70.7467Z" fill="url(#paint1_linear_1105_11767)" style="mix-blend-mode:multiply"/>
<path fill-rule="evenodd" clip-rule="evenodd" d="M104.937 57.7646C105.307 55.7201 105.5 53.6282 105.5 51.4998C105.5 28.0277 93 7.49996 58.5 8.99972C35.0279 8.99972 11 28.0276 11 51.4997C11 62.6987 16.4698 72.886 24.7392 80.4776C21.0889 74.4521 19 67.4585 19 59.9998C19 37.3561 38.2518 18.9998 62 18.9998C84.9617 18.9998 103.72 36.1604 104.937 57.7646Z" fill="url(#paint2_linear_1105_11767)" style="mix-blend-mode:multiply"/>
<defs>
<linearGradient id="paint0_linear_1105_11767" x1="60.5" y1="31" x2="60.5" y2="70" gradientUnits="userSpaceOnUse">
<stop offset="0.21875" stop-color="#406BDA"/>
<stop offset="1" stop-color="#6083DC" stop-opacity="0.46"/>
</linearGradient>
<linearGradient id="paint1_linear_1105_11767" x1="55" y1="26" x2="55" y2="83" gradientUnits="userSpaceOnUse">
<stop offset="0.21875" stop-color="#406BDA"/>
<stop offset="1" stop-color="#6083DC" stop-opacity="0.46"/>
</linearGradient>
<linearGradient id="paint2_linear_1105_11767" x1="58.25" y1="8.92236" x2="58.25" y2="80.4776" gradientUnits="userSpaceOnUse">
<stop offset="0.21875" stop-color="#406BDA"/>
<stop offset="1" stop-color="#6083DC" stop-opacity="0.46"/>
</linearGradient>
</defs>
</svg>
