<svg width="32" height="32" viewBox="0 0 32 32" fill="none" xmlns="http://www.w3.org/2000/svg">
<g clip-path="url(#clip0_1155_2379)">
<path fill-rule="evenodd" clip-rule="evenodd" d="M32 16C32 24.8366 24.8366 32 16 32C7.16344 32 0 24.8366 0 16C0 7.16344 7.16344 0 16 0C24.8366 0 32 7.16344 32 16ZM22.8125 10.5938C22.8125 14.3734 19.7484 17.4375 15.9688 17.4375C12.1891 17.4375 9.125 14.3734 9.125 10.5938C9.125 6.81405 12.1891 3.75 15.9688 3.75C19.7484 3.75 22.8125 6.81405 22.8125 10.5938ZM23.102 26.7985C25.5194 25.332 26.9408 22.1485 25.7643 19.5774C24.6992 17.2502 22.0299 16.4813 19.8051 17.7466C18.6044 18.4294 17.3618 18.9422 15.9679 18.9375C14.6896 18.9331 13.6196 18.5045 12.6038 17.9102C10.3375 16.5842 7.6349 17.2868 6.51833 19.6633C5.21883 22.4291 6.86732 25.9247 9.54525 27.3968C9.59609 27.4248 9.64686 27.4527 9.69757 27.4806C11.6871 28.5752 13.5806 29.6169 15.9679 29.625C18.4601 29.6335 20.4927 28.3918 22.6107 27.0979C22.7739 26.9983 22.9375 26.8983 23.102 26.7985Z" fill="url(#paint0_linear_1155_2379)" style="mix-blend-mode:multiply"/>
</g>
<defs>
<linearGradient id="paint0_linear_1155_2379" x1="16" y1="0" x2="16" y2="32" gradientUnits="userSpaceOnUse">
<stop offset="0.21875" stop-color="#406BDA"/>
<stop offset="1" stop-color="#6083DC" stop-opacity="0.46"/>
</linearGradient>
<clipPath id="clip0_1155_2379">
<rect width="32" height="32" fill="white"/>
</clipPath>
</defs>
</svg>
